<svg width="36" height="36" viewBox="0 0 36 36" fill="none" xmlns="http://www.w3.org/2000/svg">
<path d="M36 1.98482V34.0071C36 35.108 35.108 35.992 34.0152 35.992H24.8384V22.058H29.5152L30.2143 16.6259H24.8304V13.1545C24.8304 11.5795 25.2643 10.5107 27.5223 10.5107H30.3991V5.64911C29.9009 5.58482 28.1973 5.43214 26.2045 5.43214C22.058 5.43214 19.2134 7.96339 19.2134 12.6161V16.6259H14.5205V22.058H19.2134V36H1.98482C0.891964 36 0 35.108 0 34.0152V1.98482C0 0.891964 0.891964 0 1.98482 0H34.0071C35.108 0 36 0.891964 36 1.98482Z" fill="black"/>
</svg>
