<svg width="45" height="36" viewBox="0 0 45 36" fill="none" xmlns="http://www.w3.org/2000/svg">
<path d="M39.7688 8.97184C39.7969 9.36557 39.7969 9.75939 39.7969 10.1531C39.7969 22.1624 30.6563 36 13.95 36C8.80311 36 4.02189 34.5093 0 31.9219C0.731277 32.0062 1.43433 32.0344 2.19374 32.0344C6.44055 32.0344 10.35 30.6 13.4719 28.1532C9.47812 28.0688 6.13123 25.4531 4.97808 21.8531C5.54063 21.9374 6.10309 21.9937 6.69378 21.9937C7.50937 21.9937 8.32506 21.8812 9.08439 21.6844C4.9219 20.8406 1.79993 17.1844 1.79993 12.7687V12.6563C3.00926 13.3313 4.41562 13.7531 5.90614 13.8093C3.45926 12.178 1.8562 9.39371 1.8562 6.24369C1.8562 4.55622 2.30612 3.00934 3.09366 1.65933C7.56556 7.17183 14.2875 10.7718 21.8249 11.1656C21.6843 10.4906 21.5999 9.78753 21.5999 9.08439C21.5999 4.07808 25.6499 6.34075e-08 30.6843 6.34075e-08C33.2999 6.34075e-08 35.6624 1.09687 37.3218 2.86875C39.3749 2.47502 41.3436 1.71561 43.0874 0.675005C42.4123 2.78443 40.978 4.5563 39.0937 5.68123C40.9218 5.48445 42.6937 4.97808 44.3249 4.27503C43.0876 6.07496 41.5406 7.67802 39.7688 8.97184V8.97184Z" fill="black"/>
</svg>
