<svg width="46" height="32" viewBox="0 0 46 32" fill="none" xmlns="http://www.w3.org/2000/svg">
<path d="M44.5602 5.00692C44.0368 3.03608 42.4946 1.48392 40.5365 0.957167C36.9873 0 22.7556 0 22.7556 0C22.7556 0 8.52392 0 4.97467 0.957167C3.01658 1.484 1.47442 3.03608 0.951 5.00692C0 8.57917 -3.24249e-08 16.0323 -3.24249e-08 16.0323C-3.24249e-08 16.0323 0 23.4855 0.951 27.0578C1.47442 29.0286 3.01658 30.5161 4.97467 31.0428C8.52392 32 22.7556 32 22.7556 32C22.7556 32 36.9872 32 40.5365 31.0428C42.4946 30.5161 44.0368 29.0286 44.5602 27.0578C45.5112 23.4855 45.5112 16.0323 45.5112 16.0323C45.5112 16.0323 45.5112 8.57917 44.5602 5.00692V5.00692ZM18.101 22.7993V9.26542L29.9959 16.0325L18.101 22.7993V22.7993Z" fill="black"/>
</svg>
